<svg xmlns="http://www.w3.org/2000/svg" width="42" height="42" viewBox="0 0 42 42">
  <g id="Logo" transform="translate(-39.822 52.819)">
    <circle id="Ellipse" cx="21" cy="21" r="21" transform="translate(39.822 -52.819)" fill="#f3ba2c"/>
    <g id="Grupo_3020" data-name="Grupo 3020">
      <g id="Triangles">
        <path id="Trazado_9219" data-name="Trazado 9219" d="M69.832-26.172h0l-9.007,9.009-9.006-9.006,0,0,3.317-3.308h0l5.694,5.692,5.7-5.7Z" fill="#fff"/>
        <path id="Trazado_9220" data-name="Trazado 9220" d="M69.829-37.468l-3.312,3.312-5.7-5.7-5.694,5.692-3.312-3.312,9.006-9.006Z" fill="#fff"/>
      </g>
      <g id="Rectangles">
        <rect id="Rect치ngulo_1545" data-name="Rect치ngulo 1545" width="4.685" height="4.685" transform="translate(68.854 -31.817) rotate(-45)" fill="#fff"/>
        <rect id="Rect치ngulo_1546" data-name="Rect치ngulo 1546" width="4.685" height="4.685" transform="translate(46.164 -31.819) rotate(-45)" fill="#fff"/>
        <path id="Trazado_9221" data-name="Trazado 9221" d="M64.182-31.821h0l-3.361-3.362L58.338-32.7h0l-.285.285-.589.589,0,0,0,0,3.359,3.359,3.362-3.361v0h0" fill="#fff"/>
      </g>
    </g>
  </g>
</svg>
