<svg width="66" height="56" viewBox="0 0 66 56" fill="none" xmlns="http://www.w3.org/2000/svg">
<path d="M33.8428 31.5302H52.842C53.247 31.5302 53.4383 31.5302 53.4675 30.9992C53.6228 29.0664 53.6228 27.1224 53.4675 25.1874C53.4675 24.8116 53.2807 24.6564 52.8735 24.6564H15.0619C14.5939 24.6564 14.4679 24.8116 14.4679 25.2504V30.8125C14.4679 31.5302 14.4679 31.5302 15.2171 31.5302H33.8428V31.5302ZM51.3457 18.1561C51.3997 18.0143 51.3997 17.8591 51.3457 17.7196C51.0285 17.0288 50.6527 16.3696 50.2162 15.7508C49.5592 14.6933 48.7852 13.719 47.9032 12.8438C47.4869 12.315 47.0054 11.8403 46.4654 11.4375C43.7609 9.13574 40.5456 7.50672 37.0896 6.68771C35.3458 6.29621 33.5638 6.10945 31.7773 6.1252H14.9966C14.5286 6.1252 14.4656 6.31196 14.4656 6.71921V17.8118C14.4656 18.2798 14.4656 18.4058 15.0596 18.4058H51.1207C51.1207 18.4058 51.4335 18.3428 51.4965 18.1561H51.3435H51.3457ZM51.3457 38.0305C50.8147 37.972 50.2792 37.972 49.7482 38.0305H15.0934C14.6254 38.0305 14.4679 38.0305 14.4679 38.656V49.5011C14.4679 50.0006 14.4679 50.1266 15.0934 50.1266H31.0933C31.8583 50.1851 32.6233 50.1311 33.3726 49.9714C35.6946 49.8049 37.9783 49.3009 40.1564 48.4706C40.9484 48.1961 41.7134 47.8384 42.4356 47.4086H42.6539C46.4047 45.4579 49.4512 42.3933 51.3727 38.6313C51.3727 38.6313 51.591 38.1588 51.3457 38.035V38.0305ZM8.18805 55.7494V55.5627V48.2816V45.8134V38.4693C8.18805 38.062 8.18805 38.0013 7.68855 38.0013H0.906982C0.531228 38.0013 0.375977 38.0013 0.375977 37.5018V31.564H7.62555C8.03055 31.564 8.18805 31.564 8.18805 31.033V25.1581C8.18805 24.7824 8.18805 24.6901 7.68855 24.6901H0.906982C0.531228 24.6901 0.375977 24.6901 0.375977 24.1906V18.6916C0.375977 18.3473 0.375977 18.2551 0.875482 18.2551H7.59405C8.06205 18.2551 8.18805 18.2551 8.18805 17.6611V0.817402C8.18805 0.317897 8.18805 0.191895 8.81356 0.191895H32.2498C33.9508 0.259395 35.6406 0.446147 37.3123 0.7544C40.7571 1.39116 44.0669 2.62192 47.0932 4.37919C49.1002 5.56045 50.9475 6.98696 52.5922 8.62948C53.8298 9.91424 54.9458 11.3048 55.9358 12.7853C56.919 14.286 57.7358 15.8903 58.3771 17.5666C58.4558 18.0031 58.8743 18.2978 59.3108 18.2236H64.9044C65.6221 18.2236 65.6221 18.2236 65.6536 18.9121V24.0376C65.6536 24.5371 65.4669 24.6631 64.9651 24.6631H60.6518C60.2153 24.6631 60.0893 24.6631 60.1208 25.2256C60.2918 27.1292 60.2918 29.0394 60.1208 30.943C60.1208 31.474 60.1208 31.537 60.7171 31.537H65.6514C65.8696 31.8182 65.6514 32.0995 65.6514 32.383C65.6829 32.7452 65.6829 33.112 65.6514 33.4742V37.2565C65.6514 37.7875 65.4961 37.945 65.0259 37.945H59.1196C58.7078 37.8663 58.3073 38.1295 58.2128 38.539C56.8065 42.1953 54.5565 45.4736 51.6495 48.1016C50.5875 49.0579 49.4715 49.9579 48.306 50.7882C47.0549 51.5082 45.8377 52.2574 44.5552 52.8514C42.1949 53.9134 39.7199 54.6964 37.1796 55.1937C34.7676 55.6257 32.3218 55.8215 29.867 55.7877H8.17905V55.7562L8.18805 55.7494Z" fill="#FEFEFD"/>
</svg>
