<svg xmlns="http://www.w3.org/2000/svg" width="42.79" height="30.771" viewBox="0 0 42.79 30.771">
  <path id="Trazado_48" data-name="Trazado 48" d="M321.977,4367.635a18.086,18.086,0,0,0-10.3-3.85l-.516.586c6.036,1.846,8.943,4.483,9.119,4.647a29.939,29.939,0,0,0-11.023-3.51,31.04,31.04,0,0,0-7.4.07,3.977,3.977,0,0,0-.621.076,27.534,27.534,0,0,0-8.315,2.309c-1.272.58-2.057,1.008-2.151,1.055.182-.176,3.235-2.948,9.622-4.794l-.363-.439a18.086,18.086,0,0,0-10.3,3.85,49.038,49.038,0,0,0-5.274,21.354s3.076,5.309,11.175,5.567c0,0,1.354-1.647,2.461-3.041a11.471,11.471,0,0,1-6.411-4.313c.059.04.416.275,1.02.615a.548.548,0,0,0,.146.111c.106.07.217.106.329.182a21.335,21.335,0,0,0,2.672,1.242,31.279,31.279,0,0,0,5.385,1.577,25.57,25.57,0,0,0,9.488.035,24,24,0,0,0,5.315-1.571,21.591,21.591,0,0,0,4.207-2.156,11.642,11.642,0,0,1-6.621,4.354c1.095,1.389,2.414,2.965,2.414,2.965,8.093-.258,11.21-5.567,11.21-5.567A49.038,49.038,0,0,0,321.977,4367.635Zm-22.971,17.949a4.082,4.082,0,0,1,0-8.134,4.081,4.081,0,0,1,0,8.134Zm13.372,0a4.081,4.081,0,1,1,3.739-4.067A3.93,3.93,0,0,1,312.378,4385.584Z" transform="translate(-284.461 -4363.785)" fill="#fff"/>
</svg>
