<svg xmlns="http://www.w3.org/2000/svg" width="14.92" height="13.126" viewBox="0 0 14.92 13.126">
  <path id="ic_thumb_up_24px" data-name="ic thumb up 24px" d="M1535.973,2527.4h-.68a1.014,1.014,0,0,0-1.014,1.014v6.1a1.014,1.014,0,0,0,1.014,1.014h.68a1.014,1.014,0,0,0,1.014-1.014v-6.1A1.014,1.014,0,0,0,1535.973,2527.4Zm-13.883,7.449a1.358,1.358,0,0,0,1.354,1.354h3.035a1.014,1.014,0,0,1,.995,1.214l-.387,1.931a.958.958,0,0,0,.043.551,1.016,1.016,0,0,0,.222.333h0a1.014,1.014,0,0,0,1.431,0l3.742-3.747a1.33,1.33,0,0,0,.4-.955v-6.772a1.359,1.359,0,0,0-1.355-1.354h-6.094a1.346,1.346,0,0,0-1.246.826s-2.073,4.851-2.14,5.268a10.576,10.576,0,0,0,0,1.294l.007.007Z" transform="translate(-1522.067 -2527.4)" fill="#ef3340"/>
</svg>
