<svg xmlns="http://www.w3.org/2000/svg" width="42" height="42" viewBox="0 0 42 42">
  <g id="Grupo_3039" data-name="Grupo 3039" transform="translate(-114 -157)">
    <rect id="Rectángulo_1506" data-name="Rectángulo 1506" width="42" height="42" rx="21" transform="translate(114 157)" fill="#6667ab"/>
    <path id="ic_reply_24px" data-name="ic reply 24px" d="M3803.813,2313.706h5.25l-9.187-9.187-9.187,9.188h5.381c0,6.563-2.1,11.156-6.694,14.438C3795.938,2326.831,3802.5,2322.893,3803.813,2313.706Z" transform="translate(-3664.257 -2138.253)" fill="#fff"/>
    <circle id="Elipse_355" data-name="Elipse 355" cx="21" cy="21" r="21" transform="translate(114 157)" fill="#22996e"/>
    <path id="Trazado_9217" data-name="Trazado 9217" d="M54.246,18.42H42.807A1.964,1.964,0,0,1,41.1,15.346L47.588,5.1a2.605,2.605,0,0,1,2.049-1.2h8.878a2.369,2.369,0,0,1,2.048,1.2l6.488,10.244a1.964,1.964,0,0,1-1.707,3.074Z" transform="translate(80.754 168.8)" fill="#fff"/>
    <path id="Trazado_9218" data-name="Trazado 9218" d="M55.442-4.8,58.173-.532a1.341,1.341,0,0,1-1.195,2.049H51.344a1.341,1.341,0,0,1-1.2-2.049L52.881-4.8C53.9-5.654,54.929-5.654,55.442-4.8Z" transform="translate(80.754 168.8)" fill="#fff"/>
  </g>
</svg>
