<svg xmlns="http://www.w3.org/2000/svg" width="45.94" height="42.15" viewBox="0 0 45.94 42.15">
  <path id="ic_favorite_border_24px" d="M35.307,3A13.755,13.755,0,0,0,24.97,7.8,13.755,13.755,0,0,0,14.634,3,12.511,12.511,0,0,0,2,15.634c0,8.683,7.81,15.757,19.639,26.507L24.97,45.15,28.3,42.118C40.13,31.391,47.94,24.316,47.94,15.634A12.511,12.511,0,0,0,35.307,3ZM25.2,38.718l-.23.23-.23-.23C13.807,28.818,6.594,22.272,6.594,15.634a7.85,7.85,0,0,1,8.04-8.04,8.98,8.98,0,0,1,8.2,5.421h4.3a8.923,8.923,0,0,1,8.177-5.421,7.85,7.85,0,0,1,8.04,8.04C43.346,22.272,36.134,28.818,25.2,38.718Z" transform="translate(-2 -3)" fill="#fff"/>
</svg>
