<svg xmlns="http://www.w3.org/2000/svg" width="14.92" height="13.126" viewBox="0 0 14.92 13.126">
  <path id="ic_thumb_up_24px" data-name="ic thumb up 24px" d="M1499.39,2540.526h.68a1.014,1.014,0,0,0,1.014-1.015v-6.1a1.014,1.014,0,0,0-1.014-1.014h-.68a1.014,1.014,0,0,0-1.014,1.014v6.1A1.014,1.014,0,0,0,1499.39,2540.526Zm13.883-7.449a1.358,1.358,0,0,0-1.354-1.354h-3.035a1.014,1.014,0,0,1-.995-1.214l.387-1.931a.954.954,0,0,0-.043-.552,1.021,1.021,0,0,0-.221-.332h0a1.014,1.014,0,0,0-1.432,0l-3.742,3.747a1.325,1.325,0,0,0-.4.955v6.771a1.358,1.358,0,0,0,1.354,1.355h6.094a1.344,1.344,0,0,0,1.246-.826s2.073-4.851,2.14-5.269a10.36,10.36,0,0,0,0-1.293l-.007-.007Z" transform="translate(-1498.376 -2527.4)" fill="#6fffe9"/>
</svg>
