<svg xmlns="http://www.w3.org/2000/svg" width="42" height="42" viewBox="0 0 42 42">
  <g id="Grupo_3033" data-name="Grupo 3033" transform="translate(189.5 -87.5)">
    <g id="Elipse_356" data-name="Elipse 356" transform="translate(-189.5 87.5)" fill="#fff" stroke="#000" stroke-width="1">
      <circle cx="21" cy="21" r="21" stroke="none"/>
      <circle cx="21" cy="21" r="20.5" fill="none"/>
    </g>
    <path id="Trazado_9674" data-name="Trazado 9674" d="M-164.424,97.341l-4.241,6.293a.451.451,0,0,0,.677.587l4.173-3.632a.164.164,0,0,1,.271.136V112.07a.169.169,0,0,1-.294.112L-176.47,97.07a2.085,2.085,0,0,0-1.646-.766h-.451a2.161,2.161,0,0,0-2.143,2.165v15.97a2.165,2.165,0,0,0,2.165,2.165,2.173,2.173,0,0,0,1.849-1.037l4.241-6.293a.451.451,0,0,0-.677-.587L-177.3,112.3a.164.164,0,0,1-.271-.136V100.837a.169.169,0,0,1,.294-.112l12.631,15.112A2.121,2.121,0,0,0-163,116.6h.451a2.165,2.165,0,0,0,2.165-2.165V98.469a2.2,2.2,0,0,0-2.188-2.165A2.173,2.173,0,0,0-164.424,97.341Z" transform="translate(2.049 2.046)"/>
  </g>
</svg>
