<svg width="76" height="72" viewBox="0 0 76 72" fill="none" xmlns="http://www.w3.org/2000/svg">
<path d="M51.3518 43.333C51.3518 36.0415 46.9768 33.5415 38.2268 32.5C31.9768 31.6665 30.7268 30 30.7268 27.083C30.7268 24.166 32.8103 22.2915 36.9768 22.2915C40.7268 22.2915 42.8103 23.5415 43.8518 26.6665C44.0603 27.2915 44.6853 27.708 45.3103 27.708H48.6433C49.4768 27.708 50.1018 27.083 50.1018 26.25V26.0415C49.2683 21.458 45.5183 17.9165 40.7268 17.5V12.5C40.7268 11.6665 40.1018 11.0415 39.0603 10.833H35.9353C35.1018 10.833 34.4768 11.458 34.2683 12.5V17.2915C28.0183 18.125 24.0603 22.2915 24.0603 27.5C24.0603 34.375 28.2268 37.083 36.9768 38.125C42.8103 39.1665 44.6853 40.4165 44.6853 43.75C44.6853 47.0835 41.7683 49.375 37.8103 49.375C32.3933 49.375 30.5183 47.083 29.8933 43.958C29.6853 43.125 29.0603 42.708 28.4353 42.708H24.8933C24.0603 42.708 23.4353 43.333 23.4353 44.1665V44.375C24.2683 49.583 27.6018 53.333 34.4768 54.375V59.375C34.4768 60.208 35.1018 60.833 36.1433 61.0415H39.2683C40.1018 61.0415 40.7268 60.4165 40.9353 59.375V54.375C47.1853 53.333 51.3518 48.958 51.3518 43.333V43.333Z" fill="white"/>
<path d="M26.9767 65.208C10.7267 59.375 2.39322 41.25 8.43522 25.208C11.5602 16.458 18.4352 9.7915 26.9767 6.6665C27.8102 6.25 28.2267 5.625 28.2267 4.583V1.6665C28.2267 0.832999 27.8102 0.208 26.9767 0C26.7682 0 26.3517 -1.33514e-06 26.1432 0.207999C6.35172 6.458 -4.48178 27.5 1.76822 47.2915C5.51822 58.958 14.4767 67.9165 26.1432 71.6665C26.9767 72.083 27.8102 71.6665 28.0182 70.833C28.2267 70.625 28.2267 70.4165 28.2267 70V67.083C28.2267 66.458 27.6017 65.625 26.9767 65.208ZM49.0602 0.207999C48.2267 -0.208501 47.3932 0.207999 47.1852 1.0415C46.9767 1.25 46.9767 1.458 46.9767 1.875V4.7915C46.9767 5.625 47.6017 6.458 48.2267 6.875C64.4767 12.708 72.8102 30.833 66.7682 46.875C63.6432 55.625 56.7682 62.2915 48.2267 65.4165C47.3932 65.833 46.9767 66.458 46.9767 67.5V70.4165C46.9767 71.25 47.3932 71.875 48.2267 72.083C48.4352 72.083 48.8517 72.083 49.0602 71.875C68.8517 65.625 79.6852 44.583 73.4352 24.7915C69.6852 12.9165 60.5182 3.958 49.0602 0.207999V0.207999Z" fill="white"/>
</svg>
