<svg width="62" height="57" viewBox="0 0 62 57" fill="none" xmlns="http://www.w3.org/2000/svg">
<path d="M37.171 19.3379V11.8999H54.18V0.566895H7.86403V11.8999H24.875V19.3319C11.05 19.9669 0.655029 22.7049 0.655029 25.9849C0.655029 29.2649 11.055 32.0029 24.875 32.6419V56.4669H37.175V32.6399C50.975 32.0029 61.349 29.2669 61.349 25.9899C61.349 22.7129 50.975 19.9769 37.175 19.3399M37.175 30.6219V30.6159C36.828 30.6379 35.045 30.7449 31.075 30.7449C27.901 30.7449 25.668 30.6549 24.881 30.6139V30.6239C12.667 30.0829 3.55003 27.9559 3.55003 25.4109C3.55003 22.8659 12.668 20.7419 24.881 20.1999V28.5049C25.681 28.5599 27.969 28.6949 31.127 28.6949C34.92 28.6949 36.827 28.5369 37.177 28.5049V20.1999C49.367 20.7429 58.463 22.8719 58.463 25.4079C58.463 27.9439 49.363 30.0739 37.177 30.6169" fill="white"/>
</svg>
