<svg xmlns="http://www.w3.org/2000/svg" width="42" height="42" viewBox="0 0 42 42">
  <g id="Logo" transform="translate(0.001 0)">
    <g id="Grupo_3020" data-name="Grupo 3020" transform="translate(5.922 7.032)">
      <g id="Triangles" transform="translate(5.489)">
        <path id="Trazado_9219" data-name="Trazado 9219" d="M68.963-26.218h0l-8.573,8.885-8.572-8.882,0,0,3.157-3.262h0l5.419,5.614,5.421-5.617Z" transform="translate(-51.811 46.244)" fill="#fff"/>
        <path id="Trazado_9220" data-name="Trazado 9220" d="M68.96-37.592l-3.152,3.267-5.421-5.617-5.419,5.614-3.152-3.267,8.572-8.882Z" transform="translate(-51.812 46.477)" fill="#fff"/>
      </g>
      <g id="Rectangles" transform="translate(0 11.139)">
        <path id="Trazado_10320" data-name="Trazado 10320" d="M.081.081,4.62,0,4.54,4.54,0,4.62Z" transform="translate(21.596 3.319) rotate(-45)" fill="#fff"/>
        <path id="Trazado_10321" data-name="Trazado 10321" d="M.081.081,4.62,0,4.54,4.54,0,4.62Z" transform="translate(0 3.318) rotate(-45)" fill="#fff"/>
        <path id="Trazado_9221" data-name="Trazado 9221" d="M63.858-31.867h0l-3.2-3.316L58.3-32.733h0l-.271.281-.561.581,0,0,0,0,3.2,3.313,3.2-3.315v0h0" transform="translate(-46.594 35.183)" fill="#fff"/>
      </g>
    </g>
    <g id="Grupo_3905" data-name="Grupo 3905" transform="translate(-0.001 0)">
      <ellipse id="Elipse_383" data-name="Elipse 383" cx="21" cy="21" rx="21" ry="21" transform="translate(0)" fill="#26a17b"/>
      <g id="Grupo_3906" data-name="Grupo 3906" transform="translate(8.761 9.557)">
        <path id="Trazado_10323" data-name="Trazado 10323" d="M473.69-102.217v0c-.14.01-.86.052-2.462.052-1.281,0-2.18-.035-2.5-.052v0c-4.927-.217-8.6-1.074-8.6-2.1s3.679-1.885,8.6-2.1v3.351c.321.023,1.245.078,2.52.078,1.532,0,2.3-.065,2.44-.078v-3.348c4.917.221,8.583,1.077,8.583,2.1s-3.669,1.881-8.583,2.1m0-4.551v-3h6.86v-4.571H461.872v4.571h6.861v3c-5.576.256-9.767,1.359-9.767,2.682s4.194,2.427,9.767,2.686v9.608h4.959V-101.4c5.567-.256,9.751-1.36,9.751-2.683s-4.184-2.426-9.751-2.682" transform="translate(-458.966 114.333)" fill="#fff"/>
      </g>
    </g>
  </g>
</svg>
