<svg xmlns="http://www.w3.org/2000/svg" width="37.301" height="30.772" viewBox="0 0 37.301 30.772">
  <g id="g58" transform="translate(-371.076 -4363.784)">
    <g id="g64">
      <g id="g1534">
        <path id="path42" d="M380.172,4381.317l4.1,11.336s.512,1.06,1.06,1.06,8.7-8.484,8.7-8.484l9.069-17.515-22.781,10.677Z" fill="#6fffe9"/>
        <path id="path54" d="M385.6,4384.224l-.787,8.355s-.329,2.56,2.231,0,5.01-4.534,5.01-4.534" fill="#6fffe9"/>
        <path id="path66" d="M380.246,4381.721l-8.423-2.745s-1.006-.408-.683-1.334c.067-.191.2-.354.6-.634,1.867-1.3,34.55-13.049,34.55-13.049a2.8,2.8,0,0,1,1.468-.1.8.8,0,0,1,.542.591,2.684,2.684,0,0,1,.073.744c0,.216-.029.417-.048.731-.2,3.212-6.155,27.183-6.155,27.183s-.357,1.4-1.634,1.45a2.339,2.339,0,0,1-1.706-.658c-2.506-2.156-11.167-7.976-13.08-9.256a.368.368,0,0,1-.158-.258c-.027-.134.12-.3.12-.3s15.081-13.406,15.483-14.812c.031-.109-.086-.163-.244-.116-1,.369-18.366,11.333-20.282,12.544a.919.919,0,0,1-.427.025" fill="#fff"/>
      </g>
    </g>
  </g>
</svg>
