<svg xmlns="http://www.w3.org/2000/svg" width="37.933" height="30.771" viewBox="0 0 37.933 30.771">
  <path id="Trazado_2" data-name="Trazado 2" d="M212.513,4394.553a21.93,21.93,0,0,0,22.127-21.731q0-.2,0-.4v-1.053a17.142,17.142,0,0,0,3.793-4,17.535,17.535,0,0,1-4.426,1.264,8.2,8.2,0,0,0,3.371-4.216,19.31,19.31,0,0,1-4.846,1.9,7.523,7.523,0,0,0-5.69-2.527,7.917,7.917,0,0,0-7.8,7.8,4.107,4.107,0,0,0,.211,1.686,21.789,21.789,0,0,1-16.018-8.22,8.068,8.068,0,0,0-1.052,4.005,8.373,8.373,0,0,0,3.371,6.534,7.109,7.109,0,0,1-3.582-1.053h0a7.7,7.7,0,0,0,6.323,7.587,6.519,6.519,0,0,1-2.108.211,3.612,3.612,0,0,1-1.475-.211,7.984,7.984,0,0,0,7.376,5.479,15.914,15.914,0,0,1-9.694,3.371,5.839,5.839,0,0,1-1.9-.211,19.891,19.891,0,0,0,12.013,3.793" transform="translate(-200.5 -4363.785)" fill="#fff" fill-rule="evenodd"/>
</svg>
