<svg xmlns="http://www.w3.org/2000/svg" xmlns:xlink="http://www.w3.org/1999/xlink" width="689" height="119" viewBox="0 0 689 119">
  <defs>
    <linearGradient id="linear-gradient" x1="4.504" y1="-2.194" x2="8.268" y2="3.308" gradientUnits="objectBoundingBox">
      <stop offset="0" stop-color="#6fffe9"/>
      <stop offset="0.393" stop-color="#66fce1" stop-opacity="0.831"/>
      <stop offset="1" stop-color="#5af8d7" stop-opacity="0.58"/>
    </linearGradient>
    <linearGradient id="linear-gradient-2" x1="4.095" y1="-2.194" x2="8.84" y2="3.308" xlink:href="#linear-gradient"/>
    <linearGradient id="linear-gradient-3" x1="1.927" y1="-2.194" x2="4.941" y2="3.308" xlink:href="#linear-gradient"/>
    <linearGradient id="linear-gradient-4" x1="1.038" y1="-2.194" x2="4.828" y2="3.308" xlink:href="#linear-gradient"/>
    <linearGradient id="linear-gradient-5" x1="-0.689" y1="-3.44" x2="4.222" y2="4.181" xlink:href="#linear-gradient"/>
    <linearGradient id="linear-gradient-6" x1="-1.939" y1="-3.44" x2="3.198" y2="4.181" xlink:href="#linear-gradient"/>
    <linearGradient id="linear-gradient-7" x1="-2.672" y1="-3.44" x2="1.816" y2="4.181" xlink:href="#linear-gradient"/>
    <linearGradient id="linear-gradient-8" x1="-4.575" y1="-3.44" x2="0.809" y2="4.181" xlink:href="#linear-gradient"/>
    <linearGradient id="linear-gradient-9" x1="-4.382" y1="-2.641" x2="-0.195" y2="3.167" xlink:href="#linear-gradient"/>
    <linearGradient id="linear-gradient-10" x1="-6.972" y1="-3.44" x2="-1.588" y2="4.181" xlink:href="#linear-gradient"/>
    <linearGradient id="linear-gradient-11" x1="-9.416" y1="-2.519" x2="-3.125" y2="3.524" xlink:href="#linear-gradient"/>
    <linearGradient id="linear-gradient-12" x1="-8.233" y1="-3.44" x2="-3.321" y2="4.181" xlink:href="#linear-gradient"/>
    <linearGradient id="linear-gradient-13" x1="-5.781" y1="-3.495" x2="-2.778" y2="4.248" xlink:href="#linear-gradient"/>
    <linearGradient id="linear-gradient-14" x1="4.504" y1="-2.194" x2="8.268" y2="3.308" gradientUnits="objectBoundingBox">
      <stop offset="0" stop-color="#ff7bac"/>
      <stop offset="0.216" stop-color="#ff7bac" stop-opacity="0.761"/>
      <stop offset="0.604" stop-color="#ff7bac" stop-opacity="0.357"/>
      <stop offset="0.874" stop-color="#ff7bac" stop-opacity="0.098"/>
      <stop offset="1" stop-color="#ff7bac" stop-opacity="0"/>
    </linearGradient>
    <linearGradient id="linear-gradient-15" x1="4.095" y1="-2.194" x2="8.84" y2="3.308" xlink:href="#linear-gradient-14"/>
    <linearGradient id="linear-gradient-16" x1="1.927" y1="-2.194" x2="4.941" y2="3.308" xlink:href="#linear-gradient-14"/>
    <linearGradient id="linear-gradient-17" x1="1.038" y1="-2.194" x2="4.828" y2="3.308" xlink:href="#linear-gradient-14"/>
    <linearGradient id="linear-gradient-18" x1="-0.689" y1="-3.44" x2="4.222" y2="4.181" xlink:href="#linear-gradient-14"/>
    <linearGradient id="linear-gradient-19" x1="-1.939" y1="-3.44" x2="3.198" y2="4.181" xlink:href="#linear-gradient-14"/>
    <linearGradient id="linear-gradient-20" x1="-2.672" y1="-3.44" x2="1.816" y2="4.181" xlink:href="#linear-gradient-14"/>
    <linearGradient id="linear-gradient-21" x1="-4.575" y1="-3.44" x2="0.809" y2="4.181" xlink:href="#linear-gradient-14"/>
    <linearGradient id="linear-gradient-22" x1="-4.382" y1="-2.641" x2="-0.195" y2="3.167" xlink:href="#linear-gradient-14"/>
    <linearGradient id="linear-gradient-23" x1="-6.972" y1="-3.44" x2="-1.588" y2="4.181" xlink:href="#linear-gradient-14"/>
    <linearGradient id="linear-gradient-24" x1="-9.416" y1="-2.519" x2="-3.125" y2="3.524" xlink:href="#linear-gradient-14"/>
    <linearGradient id="linear-gradient-25" x1="-8.233" y1="-3.44" x2="-3.321" y2="4.181" xlink:href="#linear-gradient-14"/>
    <linearGradient id="linear-gradient-26" x1="-5.781" y1="-3.495" x2="-2.778" y2="4.248" xlink:href="#linear-gradient-14"/>
  </defs>
  <g id="Grupo_4584" data-name="Grupo 4584" transform="translate(-837.693 -240.809)">
    <g id="Grupo_4581" data-name="Grupo 4581" transform="translate(0 -7)">
      <text id="NEAR_ecosystem" data-name="NEAR ecosystem" transform="translate(837.693 335.809)" fill="#60d2ca" font-size="87.355" font-family="NunitoSans-Bold, Nunito Sans" font-weight="700"><tspan x="0" y="0">NEAR ecosystem</tspan></text>
      <g id="Grupo_123" data-name="Grupo 123" transform="translate(-0.057 -19)">
        <path id="Trazado_12" data-name="Trazado 12" d="M885.795,293.223h10.57v61.586h-8.474L854.872,311.83v42.979H844.389V293.223h8.386l33.02,42.892Z" fill="url(#linear-gradient)"/>
        <path id="Trazado_13" data-name="Trazado 13" d="M909.642,354.809V293.223h41.232v8.91H920.649v16.948h28.478V327.9H920.649V345.9h30.225v8.911Z" fill="url(#linear-gradient-2)"/>
        <path id="Trazado_14" data-name="Trazado 14" d="M1007.131,354.809l-6.2-14.414H970.966l-6.2,14.414H953.407l27.866-61.586h9.172l27.867,61.586Zm-32.5-23.149h22.537L985.9,305.453Z" fill="url(#linear-gradient-3)"/>
        <path id="Trazado_15" data-name="Trazado 15" d="M1076.489,354.809H1064.26l-10.571-19.655a8.971,8.971,0,0,0-3.669-3.931,11.877,11.877,0,0,0-5.5-1.136h-8.56v24.722h-11.095V293.223h27.255q10.482,0,15.942,4.674t5.46,13.5a17.17,17.17,0,0,1-3.974,11.662q-3.977,4.586-11.226,5.984,4.891,1.311,7.863,6.9Zm-16.6-35.772q2.97-2.4,2.971-7.382,0-5.065-2.971-7.382t-9.346-2.314h-14.676v19.48h14.676Q1056.92,321.439,1059.891,319.037Z" fill="url(#linear-gradient-4)"/>
        <path id="Trazado_16" data-name="Trazado 16" d="M1145.761,335.416h-29.089q.523,5.942,3.581,8.823t8.735,2.883a20.6,20.6,0,0,0,12.929-4.543l3.144,7.512a22.881,22.881,0,0,1-7.468,3.931,28.7,28.7,0,0,1-9.041,1.485q-10.484,0-16.554-5.94t-6.071-16.248a24.932,24.932,0,0,1,2.621-11.618,19.061,19.061,0,0,1,7.381-7.862,20.91,20.91,0,0,1,10.789-2.8q8.82,0,13.932,5.679t5.111,15.636Zm-25.814-13.89q-2.665,2.8-3.275,8.037h19.742q-.175-5.328-2.621-8.081a8.646,8.646,0,0,0-6.814-2.751A9.265,9.265,0,0,0,1119.947,321.526Z" fill="url(#linear-gradient-5)"/>
        <path id="Trazado_17" data-name="Trazado 17" d="M1162.488,352.8a18.31,18.31,0,0,1-7.556-7.687,26.753,26.753,0,0,1,.131-23.367,19.3,19.3,0,0,1,7.819-7.906,23.839,23.839,0,0,1,11.705-2.8,27.867,27.867,0,0,1,8.867,1.442,18.682,18.682,0,0,1,6.944,3.888l-3.144,7.687a20.8,20.8,0,0,0-5.722-3.32,16.912,16.912,0,0,0-5.984-1.136q-5.679,0-8.823,3.539t-3.145,10.176q0,6.552,3.145,10.09t8.823,3.538a16.889,16.889,0,0,0,5.984-1.136,20.745,20.745,0,0,0,5.722-3.319l3.144,7.6a19.692,19.692,0,0,1-7.163,3.975,28.8,28.8,0,0,1-9.085,1.441A23.871,23.871,0,0,1,1162.488,352.8Z" fill="url(#linear-gradient-6)"/>
        <path id="Trazado_18" data-name="Trazado 18" d="M1205.292,352.8a18.722,18.722,0,0,1-7.644-7.774,24.65,24.65,0,0,1-2.708-11.793,24.4,24.4,0,0,1,2.708-11.75,18.811,18.811,0,0,1,7.644-7.731,25.717,25.717,0,0,1,22.974,0,18.548,18.548,0,0,1,7.6,7.731,24.729,24.729,0,0,1,2.665,11.75,24.979,24.979,0,0,1-2.665,11.793,18.463,18.463,0,0,1-7.6,7.774,25.717,25.717,0,0,1-22.974,0Zm19.524-9.259q2.794-3.494,2.795-10.308,0-6.726-2.795-10.264a9.64,9.64,0,0,0-8.037-3.538,9.76,9.76,0,0,0-8.08,3.538q-2.839,3.537-2.839,10.264,0,6.813,2.8,10.308t8.037,3.494Q1222.019,347.034,1224.816,343.54Z" fill="url(#linear-gradient-7)"/>
        <path id="Trazado_19" data-name="Trazado 19" d="M1252.812,354.11a23.606,23.606,0,0,1-8.08-4.019l3.058-7.6a25.815,25.815,0,0,0,15.637,4.979,10.917,10.917,0,0,0,5.721-1.223,3.886,3.886,0,0,0,1.965-3.495,3.536,3.536,0,0,0-1.353-2.969,13.93,13.93,0,0,0-4.849-1.922l-6.988-1.572q-5.941-1.311-8.824-4.281a10.579,10.579,0,0,1-2.881-7.687,11.373,11.373,0,0,1,2.227-6.945,14.383,14.383,0,0,1,6.2-4.673,23.781,23.781,0,0,1,9.216-1.661,27.9,27.9,0,0,1,8.779,1.4,24.39,24.39,0,0,1,7.469,3.932l-3.057,7.424q-6.641-4.8-13.279-4.8a10.186,10.186,0,0,0-5.591,1.31,4.145,4.145,0,0,0-2.008,3.669,3.7,3.7,0,0,0,1.266,2.883,8.97,8.97,0,0,0,4.063,1.747l7.25,1.66q6.375,1.4,9.346,4.411a10.78,10.78,0,0,1,2.971,7.906,11.066,11.066,0,0,1-4.805,9.434q-4.8,3.495-13.015,3.494A36.976,36.976,0,0,1,1252.812,354.11Z" fill="url(#linear-gradient-8)"/>
        <path id="Trazado_20" data-name="Trazado 20" d="M1319.246,312.179h10.745l-25.683,58.354H1293.3l7.774-17.384-17.82-40.97h11.531l12.055,30.138Z" fill="url(#linear-gradient-9)"/>
        <path id="Trazado_21" data-name="Trazado 21" d="M1339.905,354.11a23.6,23.6,0,0,1-8.08-4.019l3.058-7.6a25.814,25.814,0,0,0,15.636,4.979,10.921,10.921,0,0,0,5.722-1.223,3.886,3.886,0,0,0,1.965-3.495,3.534,3.534,0,0,0-1.354-2.969,13.915,13.915,0,0,0-4.848-1.922l-6.989-1.572q-5.94-1.311-8.823-4.281a10.576,10.576,0,0,1-2.882-7.687,11.374,11.374,0,0,1,2.228-6.945,14.376,14.376,0,0,1,6.2-4.673,23.781,23.781,0,0,1,9.216-1.661,27.9,27.9,0,0,1,8.779,1.4,24.4,24.4,0,0,1,7.469,3.932l-3.058,7.424q-6.639-4.8-13.278-4.8a10.183,10.183,0,0,0-5.591,1.31,4.144,4.144,0,0,0-2.009,3.669,3.7,3.7,0,0,0,1.267,2.883,8.965,8.965,0,0,0,4.063,1.747l7.25,1.66q6.375,1.4,9.346,4.411a10.78,10.78,0,0,1,2.971,7.906,11.069,11.069,0,0,1-4.805,9.434q-4.8,3.495-13.015,3.494A36.971,36.971,0,0,1,1339.905,354.11Z" fill="url(#linear-gradient-10)"/>
        <path id="Trazado_22" data-name="Trazado 22" d="M1402.408,347.034l-.524,8.124q-2.621.263-4.805.262-9,0-13.277-4.149t-4.281-12.361V320.3h-8.212v-8.211h8.212V299.338h10.919v12.754h11.269V320.3H1390.44v18.432q0,8.562,7.95,8.561A32.561,32.561,0,0,0,1402.408,347.034Z" fill="url(#linear-gradient-11)"/>
        <path id="Trazado_23" data-name="Trazado 23" d="M1446.259,335.416H1417.17q.523,5.942,3.581,8.823t8.735,2.883a20.6,20.6,0,0,0,12.929-4.543l3.144,7.512a22.881,22.881,0,0,1-7.468,3.931,28.7,28.7,0,0,1-9.041,1.485q-10.484,0-16.554-5.94t-6.071-16.248a24.931,24.931,0,0,1,2.621-11.618,19.06,19.06,0,0,1,7.381-7.862,20.91,20.91,0,0,1,10.789-2.8q8.822,0,13.932,5.679t5.111,15.636Zm-25.814-13.89q-2.665,2.8-3.275,8.037h19.742q-.175-5.328-2.621-8.081a8.645,8.645,0,0,0-6.814-2.751A9.267,9.267,0,0,0,1420.445,321.526Z" fill="url(#linear-gradient-12)"/>
        <path id="Trazado_24" data-name="Trazado 24" d="M1516.754,315.368q3.579,4.323,3.581,13.234v26.207h-10.919v-25.77q0-4.891-1.66-7.12t-5.328-2.227a8.343,8.343,0,0,0-6.815,2.97q-2.446,2.972-2.445,8.3v23.849h-10.92v-25.77q0-4.891-1.616-7.12t-5.372-2.227a8.245,8.245,0,0,0-6.727,2.97q-2.446,2.972-2.445,8.3v23.849h-10.92V312.092h10.657v6.028a12.776,12.776,0,0,1,5.329-5.286,16.481,16.481,0,0,1,7.775-1.791q9.7,0,12.841,8.038a14.6,14.6,0,0,1,5.765-5.9,16.635,16.635,0,0,1,8.387-2.141Q1513.172,311.043,1516.754,315.368Z" fill="url(#linear-gradient-13)"/>
      </g>
    </g>
    <g id="Grupo_4583" data-name="Grupo 4583">
      <path id="Trazado_25" data-name="Trazado 25" d="M885.795,293.223h10.57v61.586h-8.474L854.872,311.83v42.979H844.389V293.223h8.386l33.02,42.892Z" transform="translate(-0.057 -26)" fill="url(#linear-gradient-14)"/>
      <path id="Trazado_26" data-name="Trazado 26" d="M909.642,354.809V293.223h41.232v8.91H920.649v16.948h28.478V327.9H920.649V345.9h30.225v8.911Z" transform="translate(-0.057 -26)" fill="url(#linear-gradient-15)"/>
      <path id="Trazado_27" data-name="Trazado 27" d="M1007.131,354.809l-6.2-14.414H970.966l-6.2,14.414H953.407l27.866-61.586h9.172l27.867,61.586Zm-32.5-23.149h22.537L985.9,305.453Z" transform="translate(-0.057 -26)" fill="url(#linear-gradient-16)"/>
      <path id="Trazado_28" data-name="Trazado 28" d="M1076.489,354.809H1064.26l-10.571-19.655a8.971,8.971,0,0,0-3.669-3.931,11.877,11.877,0,0,0-5.5-1.136h-8.56v24.722h-11.095V293.223h27.255q10.482,0,15.942,4.674t5.46,13.5a17.17,17.17,0,0,1-3.974,11.662q-3.977,4.586-11.226,5.984,4.891,1.311,7.863,6.9Zm-16.6-35.772q2.97-2.4,2.971-7.382,0-5.065-2.971-7.382t-9.346-2.314h-14.676v19.48h14.676Q1056.92,321.439,1059.891,319.037Z" transform="translate(-0.057 -26)" fill="url(#linear-gradient-17)"/>
      <path id="Trazado_29" data-name="Trazado 29" d="M1145.761,335.416h-29.089q.523,5.942,3.581,8.823t8.735,2.883a20.6,20.6,0,0,0,12.929-4.543l3.144,7.512a22.881,22.881,0,0,1-7.468,3.931,28.7,28.7,0,0,1-9.041,1.485q-10.484,0-16.554-5.94t-6.071-16.248a24.932,24.932,0,0,1,2.621-11.618,19.061,19.061,0,0,1,7.381-7.862,20.91,20.91,0,0,1,10.789-2.8q8.82,0,13.932,5.679t5.111,15.636Zm-25.814-13.89q-2.665,2.8-3.275,8.037h19.742q-.175-5.328-2.621-8.081a8.646,8.646,0,0,0-6.814-2.751A9.265,9.265,0,0,0,1119.947,321.526Z" transform="translate(-0.057 -26)" fill="url(#linear-gradient-18)"/>
      <path id="Trazado_30" data-name="Trazado 30" d="M1162.488,352.8a18.31,18.31,0,0,1-7.556-7.687,26.753,26.753,0,0,1,.131-23.367,19.3,19.3,0,0,1,7.819-7.906,23.839,23.839,0,0,1,11.705-2.8,27.867,27.867,0,0,1,8.867,1.442,18.682,18.682,0,0,1,6.944,3.888l-3.144,7.687a20.8,20.8,0,0,0-5.722-3.32,16.912,16.912,0,0,0-5.984-1.136q-5.679,0-8.823,3.539t-3.145,10.176q0,6.552,3.145,10.09t8.823,3.538a16.889,16.889,0,0,0,5.984-1.136,20.745,20.745,0,0,0,5.722-3.319l3.144,7.6a19.692,19.692,0,0,1-7.163,3.975,28.8,28.8,0,0,1-9.085,1.441A23.871,23.871,0,0,1,1162.488,352.8Z" transform="translate(-0.057 -26)" fill="url(#linear-gradient-19)"/>
      <path id="Trazado_31" data-name="Trazado 31" d="M1205.292,352.8a18.722,18.722,0,0,1-7.644-7.774,24.65,24.65,0,0,1-2.708-11.793,24.4,24.4,0,0,1,2.708-11.75,18.811,18.811,0,0,1,7.644-7.731,25.717,25.717,0,0,1,22.974,0,18.548,18.548,0,0,1,7.6,7.731,24.729,24.729,0,0,1,2.665,11.75,24.979,24.979,0,0,1-2.665,11.793,18.463,18.463,0,0,1-7.6,7.774,25.717,25.717,0,0,1-22.974,0Zm19.524-9.259q2.794-3.494,2.795-10.308,0-6.726-2.795-10.264a9.64,9.64,0,0,0-8.037-3.538,9.76,9.76,0,0,0-8.08,3.538q-2.839,3.537-2.839,10.264,0,6.813,2.8,10.308t8.037,3.494Q1222.019,347.034,1224.816,343.54Z" transform="translate(-0.057 -26)" fill="url(#linear-gradient-20)"/>
      <path id="Trazado_32" data-name="Trazado 32" d="M1252.812,354.11a23.606,23.606,0,0,1-8.08-4.019l3.058-7.6a25.815,25.815,0,0,0,15.637,4.979,10.917,10.917,0,0,0,5.721-1.223,3.886,3.886,0,0,0,1.965-3.495,3.536,3.536,0,0,0-1.353-2.969,13.93,13.93,0,0,0-4.849-1.922l-6.988-1.572q-5.941-1.311-8.824-4.281a10.579,10.579,0,0,1-2.881-7.687,11.373,11.373,0,0,1,2.227-6.945,14.383,14.383,0,0,1,6.2-4.673,23.781,23.781,0,0,1,9.216-1.661,27.9,27.9,0,0,1,8.779,1.4,24.39,24.39,0,0,1,7.469,3.932l-3.057,7.424q-6.641-4.8-13.279-4.8a10.186,10.186,0,0,0-5.591,1.31,4.145,4.145,0,0,0-2.008,3.669,3.7,3.7,0,0,0,1.266,2.883,8.97,8.97,0,0,0,4.063,1.747l7.25,1.66q6.375,1.4,9.346,4.411a10.78,10.78,0,0,1,2.971,7.906,11.066,11.066,0,0,1-4.805,9.434q-4.8,3.495-13.015,3.494A36.976,36.976,0,0,1,1252.812,354.11Z" transform="translate(-0.057 -26)" fill="url(#linear-gradient-21)"/>
      <path id="Trazado_33" data-name="Trazado 33" d="M1319.246,312.179h10.745l-25.683,58.354H1293.3l7.774-17.384-17.82-40.97h11.531l12.055,30.138Z" transform="translate(-0.057 -26)" fill="url(#linear-gradient-22)"/>
      <path id="Trazado_34" data-name="Trazado 34" d="M1339.905,354.11a23.6,23.6,0,0,1-8.08-4.019l3.058-7.6a25.814,25.814,0,0,0,15.636,4.979,10.921,10.921,0,0,0,5.722-1.223,3.886,3.886,0,0,0,1.965-3.495,3.534,3.534,0,0,0-1.354-2.969,13.915,13.915,0,0,0-4.848-1.922l-6.989-1.572q-5.94-1.311-8.823-4.281a10.576,10.576,0,0,1-2.882-7.687,11.374,11.374,0,0,1,2.228-6.945,14.376,14.376,0,0,1,6.2-4.673,23.781,23.781,0,0,1,9.216-1.661,27.9,27.9,0,0,1,8.779,1.4,24.4,24.4,0,0,1,7.469,3.932l-3.058,7.424q-6.639-4.8-13.278-4.8a10.183,10.183,0,0,0-5.591,1.31,4.144,4.144,0,0,0-2.009,3.669,3.7,3.7,0,0,0,1.267,2.883,8.965,8.965,0,0,0,4.063,1.747l7.25,1.66q6.375,1.4,9.346,4.411a10.78,10.78,0,0,1,2.971,7.906,11.069,11.069,0,0,1-4.805,9.434q-4.8,3.495-13.015,3.494A36.971,36.971,0,0,1,1339.905,354.11Z" transform="translate(-0.057 -26)" fill="url(#linear-gradient-23)"/>
      <path id="Trazado_35" data-name="Trazado 35" d="M1402.408,347.034l-.524,8.124q-2.621.263-4.805.262-9,0-13.277-4.149t-4.281-12.361V320.3h-8.212v-8.211h8.212V299.338h10.919v12.754h11.269V320.3H1390.44v18.432q0,8.562,7.95,8.561A32.561,32.561,0,0,0,1402.408,347.034Z" transform="translate(-0.057 -26)" fill="url(#linear-gradient-24)"/>
      <path id="Trazado_36" data-name="Trazado 36" d="M1446.259,335.416H1417.17q.523,5.942,3.581,8.823t8.735,2.883a20.6,20.6,0,0,0,12.929-4.543l3.144,7.512a22.881,22.881,0,0,1-7.468,3.931,28.7,28.7,0,0,1-9.041,1.485q-10.484,0-16.554-5.94t-6.071-16.248a24.931,24.931,0,0,1,2.621-11.618,19.06,19.06,0,0,1,7.381-7.862,20.91,20.91,0,0,1,10.789-2.8q8.822,0,13.932,5.679t5.111,15.636Zm-25.814-13.89q-2.665,2.8-3.275,8.037h19.742q-.175-5.328-2.621-8.081a8.645,8.645,0,0,0-6.814-2.751A9.267,9.267,0,0,0,1420.445,321.526Z" transform="translate(-0.057 -26)" fill="url(#linear-gradient-25)"/>
      <path id="Trazado_37" data-name="Trazado 37" d="M1516.754,315.368q3.579,4.323,3.581,13.234v26.207h-10.919v-25.77q0-4.891-1.66-7.12t-5.328-2.227a8.343,8.343,0,0,0-6.815,2.97q-2.446,2.972-2.445,8.3v23.849h-10.92v-25.77q0-4.891-1.616-7.12t-5.372-2.227a8.245,8.245,0,0,0-6.727,2.97q-2.446,2.972-2.445,8.3v23.849h-10.92V312.092h10.657v6.028a12.776,12.776,0,0,1,5.329-5.286,16.481,16.481,0,0,1,7.775-1.791q9.7,0,12.841,8.038a14.6,14.6,0,0,1,5.765-5.9,16.635,16.635,0,0,1,8.387-2.141Q1513.172,311.043,1516.754,315.368Z" transform="translate(-0.057 -26)" fill="url(#linear-gradient-26)"/>
    </g>
  </g>
</svg>
