<svg xmlns="http://www.w3.org/2000/svg" width="42.215" height="42.215" viewBox="0 0 42.215 42.215">
  <g id="Grupo_3213" data-name="Grupo 3213" transform="translate(-49.231 65.754)">
    <path id="Trazado_9215" data-name="Trazado 9215" d="M90.814-39.54A21.1,21.1,0,0,1,65.23-24.17,21.1,21.1,0,0,1,49.863-49.75,21.1,21.1,0,0,1,75.442-65.122,21.1,21.1,0,0,1,90.814-39.54Z" transform="translate(0 0)" fill="#f7931a"/>
    <path id="Trazado_9216" data-name="Trazado 9216" d="M84.178-43.621c.4-2.87-1.653-4.413-4.466-5.443l.913-3.888-2.228-.59-.888,3.786c-.586-.155-1.187-.3-1.785-.446l.895-3.811-2.227-.59-.913,3.887c-.485-.117-.961-.233-1.423-.355l0-.012L68.985-51.9l-.593,2.528s1.653.4,1.618.427a1.25,1.25,0,0,1,1.038,1.377l-1.039,4.43a1.768,1.768,0,0,1,.232.079l-.235-.062-1.457,6.205a.806.806,0,0,1-1.021.562c.022.034-1.619-.429-1.619-.429L64.8-34.073l2.9.768c.539.144,1.068.294,1.588.435l-.922,3.933,2.225.59.913-3.891c.608.175,1.2.337,1.776.489l-.91,3.873,2.228.59.922-3.925c3.8.764,6.656.456,7.859-3.195.969-2.939-.048-4.634-2.047-5.74A3.7,3.7,0,0,0,84.178-43.621Zm-5.091,7.583c-.689,2.939-5.347,1.35-6.857.952l1.223-5.21C74.964-39.9,79.807-39.1,79.088-36.038Zm.689-7.625c-.628,2.673-4.506,1.315-5.763.982l1.109-4.725C76.381-47.074,80.431-46.452,79.777-43.664Z" transform="translate(-4.941 -4.075)" fill="#fff"/>
  </g>
</svg>
